<?xml version="1.0" encoding="utf-8"?>
<!-- Generator: Adobe Illustrator 26.5.0, SVG Export Plug-In . SVG Version: 6.00 Build 0)  -->
<svg version="1.1" id="Capa_1" xmlns="http://www.w3.org/2000/svg" xmlns:xlink="http://www.w3.org/1999/xlink" x="0px" y="0px"
	 viewBox="0 0 512 512" style="enable-background:new 0 0 512 512;" xml:space="preserve">
<style type="text/css">
	.st0{fill:#CC3333;}
	.st1{fill:#6600FF;}
	.st2{fill:#339933;}
	.st3{fill:#A360FF;}
	.st4{fill:#7900FF;}
	.st5{fill:#999999;}
	.st6{fill:#FFFFFF;}
	.st7{fill:#CCCCCC;}
	.st8{fill:#666666;}
	.st9{fill:#914DFD;}
	.st10{fill:#A166FD;}
	.st11{fill:#D1B0FF;}
	.st12{fill:#E0CCFF;}
	.st13{fill:#A366FF;}
	.st14{fill:#944DFF;}
	.st15{fill:#F2F2F2;}
	.st16{clip-path:url(#SVGID_00000062179137587631255260000005407752401228441019_);}
	.st17{clip-path:url(#SVGID_00000086678596990295457650000011504644582894606219_);}
	.st18{clip-path:url(#SVGID_00000098917423579274322430000004756470325846065565_);}
	.st19{clip-path:url(#SVGID_00000035496325328817360890000014623468143744275076_);}
	.st20{clip-path:url(#SVGID_00000039126321146697768330000009572211603901839745_);}
	.st21{clip-path:url(#SVGID_00000018230930132182795340000002030074845746224273_);}
	.st22{clip-path:url(#SVGID_00000098190521981816964220000001948888740442335130_);}
	.st23{clip-path:url(#SVGID_00000152242972675455057100000003363010453861176972_);}
	.st24{clip-path:url(#SVGID_00000066516090151893464780000001816499731780509868_);}
	.st25{clip-path:url(#SVGID_00000061460467594372733410000010559527428756397499_);}
	.st26{clip-path:url(#SVGID_00000178889565950330000960000011213378836311379599_);}
	.st27{clip-path:url(#SVGID_00000003094986629913566360000015909702392269768625_);}
	.st28{clip-path:url(#SVGID_00000125587725481665503190000002639866049615190718_);}
	.st29{clip-path:url(#SVGID_00000085947404947383434240000005803646228938372265_);}
	.st30{clip-path:url(#SVGID_00000173856889824435027190000016300928422336965794_);}
	.st31{clip-path:url(#SVGID_00000090982159461790723770000011774088534235445683_);}
	.st32{clip-path:url(#SVGID_00000125569804869250898430000005581415611188988093_);}
	.st33{clip-path:url(#SVGID_00000096763768150265039060000005220494943745998268_);}
	.st34{clip-path:url(#SVGID_00000008131371064308610880000010577339048999011725_);}
	.st35{clip-path:url(#SVGID_00000083076692156978552080000011824799897803226528_);}
	.st36{clip-path:url(#SVGID_00000112611400892532958700000002036132070601015431_);}
	.st37{clip-path:url(#SVGID_00000067232946684386385310000000936410549179948720_);}
	.st38{clip-path:url(#SVGID_00000029732950183531332070000004770020324146914694_);}
	.st39{clip-path:url(#SVGID_00000133498586734207220110000011941361315067258501_);}
	.st40{clip-path:url(#SVGID_00000080904579568270585440000015255382334410191503_);}
</style>
<g>
	<path class="st4" d="M79.1,154.6C31.8,154.6,0,186.3,0,233.4c0,46.4,31.9,78.9,77.6,78.9c20.9,0,38.3-7,50.5-19.9v17.3h30v-76.3
		C158,186.3,126.3,154.6,79.1,154.6z M79.1,184.5c29.5,0,48.6,19.2,48.6,48.9c0,29.7-19.1,48.9-48.6,48.9
		c-29.9,0-49.2-19.2-49.2-48.9C30,203.7,49.3,184.5,79.1,184.5z"/>
	<g>
		<path class="st4" d="M372.1,250.6l33.4-94.8l-0.5-1.3h-31.6l0.9,2.6h-0.2l-37.6,103.5l-38-106.2h-17.8H267h-7.6
			c-47.2,0-78.9,31.7-78.9,78.9v76.3h30v-76.3c0-29.7,19.2-48.9,48.9-48.9h18.4l43.4,120.5l-18.7,52.4H334L372.1,250.6L372.1,250.6z
			"/>
		<polygon class="st4" points="480.7,157.2 443,260.7 414.2,180 399.1,225.8 427.6,305.1 408.9,357.4 440.5,357.4 512,157.2 		"/>
	</g>
</g>
</svg>
